<svg width="351" height="56" viewBox="0 0 351 56" fill="none" xmlns="http://www.w3.org/2000/svg">
<path d="M21.4922 31.4922H13.3164V45H4.48438V5.78906H21.2734C26.8333 5.78906 30.8984 6.82812 33.4688 8.90625C36.0573 10.9661 37.3516 14.1654 37.3516 18.5039C37.3516 20.1628 37.1146 21.7122 36.6406 23.1523C36.1849 24.5742 35.5924 25.6953 34.8633 26.5156C33.4049 28.138 32.1471 29.1497 31.0898 29.5508L30.3516 29.7695L40.0859 45H30.1328L21.4922 31.4922ZM28.1094 18.668C28.1094 15.0404 25.8307 13.2357 21.2734 13.2539H13.3164V24.0547H21.2734C23.5885 24.0547 25.3021 23.6172 26.4141 22.7422C27.5443 21.8672 28.1094 20.5091 28.1094 18.668ZM42.418 17H50.4844V45H42.418V17ZM43.1836 11.6133C42.3815 10.957 41.9805 10.0638 41.9805 8.93359C41.9805 7.83984 42.3815 6.94661 43.1836 6.25391C43.9674 5.57943 45.0612 5.24219 46.4648 5.24219C47.8685 5.24219 48.9622 5.57943 49.7461 6.25391C50.5482 6.94661 50.9492 7.83984 50.9492 8.93359C50.9492 10.0638 50.5482 10.957 49.7461 11.6133C48.9622 12.2878 47.8685 12.625 46.4648 12.625C45.0612 12.625 43.9674 12.2878 43.1836 11.6133ZM75.4023 17H84.0156L73.7617 45H61.9492L51.6953 17H60.3359L67.6641 38.1641H68.0469L75.4023 17ZM115.961 31L115.797 33.1328H92.5547C92.5547 34.8099 93.2201 36.25 94.5508 37.4531C95.8451 38.6745 97.7135 39.2852 100.156 39.2852C101.542 39.2852 102.781 39.0482 103.875 38.5742C104.914 38.1003 105.598 37.6263 105.926 37.1523L106.445 36.4961H115.277C115.241 36.7513 115.159 37.0703 115.031 37.4531C114.885 37.9089 114.484 38.6289 113.828 39.6133C113.135 40.6888 112.306 41.6185 111.34 42.4023C110.283 43.2227 108.797 43.9427 106.883 44.5625C104.878 45.2188 102.635 45.5469 100.156 45.5469C95.3802 45.5469 91.5065 44.2617 88.5352 41.6914C85.5638 39.1211 84.0781 35.5573 84.0781 31C84.0781 26.4427 85.5547 22.8789 88.5078 20.3086C91.4609 17.7383 95.3073 16.4531 100.047 16.4531C104.75 16.4531 108.578 17.7383 111.531 20.3086C114.484 22.8789 115.961 26.4427 115.961 31ZM105.488 24.4375C104.194 23.2891 102.38 22.7148 100.047 22.7148C97.7135 22.7148 95.9089 23.2982 94.6328 24.4648C93.3203 25.6497 92.6641 26.8984 92.6641 28.2109H107.375C107.375 26.862 106.746 25.6042 105.488 24.4375ZM137.926 16.4531L140.715 16.7266V25.6133C139.512 25.0482 137.889 24.7747 135.848 24.793C133.241 24.793 131.236 25.5221 129.832 26.9805C128.428 28.4753 127.727 30.3529 127.727 32.6133V45H119.66V17H127.727V22.1406H128.191C128.483 21.4844 128.893 20.8281 129.422 20.1719C129.951 19.4974 130.543 18.9141 131.199 18.4219C131.947 17.875 132.922 17.4102 134.125 17.0273C135.328 16.6445 136.595 16.4531 137.926 16.4531ZM160.965 37.2617H183.66V45H152.133V5.78906H160.965V37.2617ZM185.418 17H193.484V45H185.418V17ZM186.184 11.6133C185.382 10.957 184.98 10.0638 184.98 8.93359C184.98 7.83984 185.382 6.94661 186.184 6.25391C186.967 5.57943 188.061 5.24219 189.465 5.24219C190.868 5.24219 191.962 5.57943 192.746 6.25391C193.548 6.94661 193.949 7.83984 193.949 8.93359C193.949 10.0638 193.548 10.957 192.746 11.6133C191.962 12.2878 190.868 12.625 189.465 12.625C188.061 12.625 186.967 12.2878 186.184 11.6133ZM228.684 45H220.617V30.8906C220.617 28.5391 219.988 26.7435 218.73 25.5039C217.491 24.2461 215.75 23.6172 213.508 23.6172C211.229 23.6172 209.479 24.2826 208.258 25.6133C207.018 26.9622 206.398 28.7214 206.398 30.8906V45H198.332V17H206.398V21.6484H206.863C207.064 21.2109 207.492 20.6094 208.148 19.8438C208.714 19.224 209.315 18.6953 209.953 18.2578C210.701 17.7474 211.703 17.319 212.961 16.9727C214.219 16.6263 215.54 16.4531 216.926 16.4531C220.444 16.4531 223.288 17.4648 225.457 19.4883C227.608 21.5299 228.684 24.5833 228.684 28.6484V45ZM263.992 31L263.828 33.1328H240.586C240.586 34.8099 241.251 36.25 242.582 37.4531C243.876 38.6745 245.745 39.2852 248.188 39.2852C249.573 39.2852 250.812 39.0482 251.906 38.5742C252.945 38.1003 253.629 37.6263 253.957 37.1523L254.477 36.4961H263.309C263.272 36.7513 263.19 37.0703 263.062 37.4531C262.917 37.9089 262.516 38.6289 261.859 39.6133C261.167 40.6888 260.337 41.6185 259.371 42.4023C258.314 43.2227 256.828 43.9427 254.914 44.5625C252.909 45.2188 250.667 45.5469 248.188 45.5469C243.411 45.5469 239.538 44.2617 236.566 41.6914C233.595 39.1211 232.109 35.5573 232.109 31C232.109 26.4427 233.586 22.8789 236.539 20.3086C239.492 17.7383 243.339 16.4531 248.078 16.4531C252.781 16.4531 256.609 17.7383 259.562 20.3086C262.516 22.8789 263.992 26.4427 263.992 31ZM253.52 24.4375C252.225 23.2891 250.411 22.7148 248.078 22.7148C245.745 22.7148 243.94 23.2982 242.664 24.4648C241.352 25.6497 240.695 26.8984 240.695 28.2109H255.406C255.406 26.862 254.777 25.6042 253.52 24.4375Z" fill="white"/>
<path fill-rule="evenodd" clip-rule="evenodd" d="M331.839 17.279C328.812 21.1251 317.955 21.3029 314.284 17.5806C310.846 21.4106 298.961 21.8469 295.084 14.521L297.394 12.0485C300.843 17.2143 309.907 17.7692 313.956 12.0485C314.212 12.0192 314.47 12.003 314.728 12C317.938 17.2305 328.296 17.3867 331.228 12C331.4 12 332.189 12 332.189 12C336.077 17.0097 344.696 16.9773 348.778 12.2209L351 14.1655C347.323 21.653 336.232 21.4268 331.839 17.279ZM298.622 24.9443C301.832 30.1748 312.19 30.331 315.122 24.912H316.083C319.971 29.9216 328.59 29.8893 332.672 25.1328L334.894 27.0774C331.239 34.6189 320.148 34.3711 315.755 30.2233C312.728 34.0694 301.871 34.2472 298.2 30.5249C294.767 34.3549 282.877 34.7858 279 27.4653L281.288 24.9766C284.737 30.1425 293.801 30.6973 297.85 24.9766C298.106 24.9527 298.364 24.9419 298.622 24.9443ZM308.402 35.7501C308.658 35.7207 308.916 35.7046 309.174 35.7016C312.384 40.9321 322.742 41.0883 325.674 35.6746C325.847 35.6746 326.635 35.6746 326.635 35.6746C330.523 40.6843 339.143 40.652 343.225 35.8955L345.446 37.8401C341.792 45.3815 330.701 45.1337 326.308 40.986C323.281 44.8321 312.423 45.0098 308.752 41.2876C305.32 45.1176 293.429 45.5539 289.552 38.228L291.84 35.7501C295.289 40.9321 304.353 41.4869 308.402 35.7501Z" fill="white"/>
</svg>
